<?xml version="1.0" standalone="no"?>
<!DOCTYPE svg PUBLIC "-//W3C//DTD SVG 20010904//EN"
 "http://www.w3.org/TR/2001/REC-SVG-20010904/DTD/svg10.dtd">
<svg version="1.0" xmlns="http://www.w3.org/2000/svg"
 width="502.000000pt" height="502.000000pt" viewBox="0 0 502.000000 502.000000"
 preserveAspectRatio="xMidYMid meet">
<metadata>
Created by potrace 1.14, written by Peter Selinger 2001-2017
</metadata>
<g transform="translate(0.000000,502.000000) scale(0.100000,-0.100000)"
fill="#000000" stroke="none">
<path d="M1177 4423 c-4 -3 -7 -53 -7 -109 l0 -103 -107 -3 -108 -3 -3 -102
-3 -102 -102 -3 -102 -3 -3 -102 -3 -102 -52 -3 -52 -3 -3 -107 -3 -107 -102
-3 -102 -3 -3 -102 -3 -102 -102 -3 -102 -3 -3 -102 -3 -102 -102 -3 -102 -3
0 -110 0 -110 102 -3 102 -3 3 -107 3 -107 102 -3 102 -3 3 -47 3 -47 102 -3
102 -3 3 -107 3 -107 52 -3 52 -3 3 -102 3 -102 102 -3 102 -3 3 -102 3 -102
107 -3 107 -3 3 -102 3 -102 102 -3 102 -3 3 -107 3 -107 102 -3 102 -3 3
-102 3 -102 107 -3 107 -3 3 -102 3 -102 102 -3 102 -3 3 -107 3 -107 102 -3
102 -3 3 -102 3 -102 102 -3 102 -3 3 -52 3 -52 115 0 115 0 3 52 3 52 47 3
47 3 3 102 3 102 107 3 107 3 3 107 3 107 102 3 102 3 3 102 3 102 102 3 102
3 3 102 3 102 102 3 102 3 3 107 3 107 107 3 107 3 3 102 3 102 102 3 102 3 3
102 3 102 102 3 102 3 3 102 3 102 107 3 107 3 3 107 3 107 47 3 47 3 3 48 3
47 99 0 c65 0 101 4 106 12 4 6 9 52 10 102 2 50 3 94 4 98 0 4 46 9 103 10
l102 3 0 110 0 110 -105 3 -105 3 2 92 c1 52 -3 97 -9 104 -7 9 -42 13 -109
13 l-98 0 -3 103 -3 102 -47 3 -47 3 -3 107 -3 107 -107 3 -107 3 -3 102 -3
102 -102 3 -102 3 -3 102 -3 102 -102 3 -102 3 -3 107 -3 107 -1331 3 c-732 1
-1334 -1 -1337 -5z"/>
</g>
</svg>
